<?xml version="1.0" encoding="utf-8"?>
<!-- Generator: Adobe Illustrator 18.0.0, SVG Export Plug-In . SVG Version: 6.00 Build 0)  -->
<!DOCTYPE svg PUBLIC "-//W3C//DTD SVG 1.1//EN" "http://www.w3.org/Graphics/SVG/1.1/DTD/svg11.dtd">
<svg version="1.1" id="Layer_1" xmlns="http://www.w3.org/2000/svg" xmlns:xlink="http://www.w3.org/1999/xlink" x="0px" y="0px"
	 viewBox="0 0 20 20" enable-background="new 0 0 20 20" xml:space="preserve">
<path d="M13.4,6.3c-0.3-0.3-0.8-0.3-1.1,0l-5.9,5.9c-0.3,0.3-0.3,0.8,0,1.1l0.2,0.2c0.4,0.4,0.9,0.4,1.2,0.1l5.9-5.9
	C14,7.4,14,6.9,13.7,6.6L13.4,6.3z"/>
<path d="M13.7,13.4c0.3-0.3,0.3-0.8,0-1.1L7.7,6.3C7.5,6,6.9,6,6.6,6.3L6.4,6.5C6,6.9,6,7.4,6.3,7.7l5.9,5.9c0.4,0.4,0.8,0.3,1.1,0
	L13.7,13.4L13.7,13.4z"/>
</svg>
